<svg xmlns="http://www.w3.org/2000/svg" width="20" height="20" viewBox="0 0 20 20">
  <g id="Facebook" transform="translate(-1211.44 -3015.439)">
    <path id="Vector" d="M5.869,15.8H1.806V9.255H.948A.948.948,0,0,1,0,8.307V6.591a.948.948,0,0,1,.948-.948h.858V3.386A3.387,3.387,0,0,1,5.192,0H7.63a.948.948,0,0,1,.948.948V3.115a.948.948,0,0,1-.948.948H5.869v1.58h1.7A.945.945,0,0,1,8.5,6.772L8.153,8.487a.948.948,0,0,1-.93.758H5.869V15.8ZM3.16,14.447H4.515V7.9H6.9L7.079,7H4.524V3.657a.948.948,0,0,1,.948-.948H7.232V1.354H5.192A2.035,2.035,0,0,0,3.16,3.386V7H1.354v.9H3.16Z" transform="translate(1218.103 3019.638)" fill="#fbfefd"/>
    <path id="Vector-2" data-name="Vector" d="M12.791,20H7.209C2.158,20,0,17.842,0,12.791V7.209C0,2.158,2.158,0,7.209,0h5.581C17.842,0,20,2.158,20,7.209v5.581C20,17.842,17.842,20,12.791,20ZM7.209,1.4C2.921,1.4,1.4,2.921,1.4,7.209v5.581c0,4.288,1.526,5.814,5.814,5.814h5.581c4.288,0,5.814-1.526,5.814-5.814V7.209c0-4.288-1.526-5.814-5.814-5.814Z" transform="translate(1211.44 3015.439)" fill="#fbfefd"/>
  </g>
</svg>
