<svg xmlns="http://www.w3.org/2000/svg" width="20" height="20" viewBox="0 0 20 20">
  <g id="Instagram" transform="translate(-1147.25 -2985.25)">
    <path id="Vector" d="M12.791,20H7.209C2.158,20,0,17.842,0,12.791V7.209C0,2.158,2.158,0,7.209,0h5.581C17.842,0,20,2.158,20,7.209v5.581C20,17.842,17.842,20,12.791,20ZM7.209,1.4C2.921,1.4,1.4,2.921,1.4,7.209v5.581c0,4.288,1.526,5.814,5.814,5.814h5.581c4.288,0,5.814-1.526,5.814-5.814V7.209c0-4.288-1.526-5.814-5.814-5.814Z" transform="translate(1147.25 2985.25)" fill="#fbfefd"/>
    <path id="Vector-2" data-name="Vector" d="M4.877,9.754A4.877,4.877,0,1,1,9.754,4.877,4.888,4.888,0,0,1,4.877,9.754Zm0-8.033A3.156,3.156,0,1,0,8.033,4.877,3.154,3.154,0,0,0,4.877,1.721Z" transform="translate(1152.373 2990.373)" fill="#fbfefd"/>
    <path id="Vector-3" data-name="Vector" d="M1.148,2.3A1.142,1.142,0,0,1,.711,2.2a1.325,1.325,0,0,1-.379-.241A1.365,1.365,0,0,1,.08,1.585,1.131,1.131,0,0,1,0,1.149,1.131,1.131,0,0,1,.08.712,1.455,1.455,0,0,1,.333.334,1.808,1.808,0,0,1,.5.2a.869.869,0,0,1,.207-.1A.692.692,0,0,1,.929.024a1.155,1.155,0,0,1,1.033.31A1.185,1.185,0,0,1,2.2.712a1.142,1.142,0,0,1,.092.436,1.142,1.142,0,0,1-.092.436,1.325,1.325,0,0,1-.241.379,1.325,1.325,0,0,1-.379.241A1.142,1.142,0,0,1,1.148,2.3Z" transform="translate(1160.642 2989.108)" fill="#fbfefd"/>
  </g>
</svg>
